<svg width="32" height="32" viewBox="0 0 32 32" fill="none" xmlns="http://www.w3.org/2000/svg">
<path d="M8.76186 18.7123L7.85682 22.0909L4.54894 22.1609C3.56037 20.3273 2.99963 18.2295 2.99963 16.0001C2.99963 13.8444 3.52391 11.8115 4.45322 10.0215H4.45393L7.39887 10.5614L8.68893 13.4887C8.41893 14.2758 8.27176 15.1208 8.27176 16.0001C8.27186 16.9544 8.44472 17.8688 8.76186 18.7123Z" fill="#FBBB00"/>
<path d="M28.7727 13.5713C28.922 14.3577 28.9998 15.1699 28.9998 15.9999C28.9998 16.9306 28.902 17.8385 28.7156 18.7142C28.0827 21.6943 26.4291 24.2964 24.1384 26.1379L24.1377 26.1372L20.4284 25.9479L19.9034 22.6707C21.4234 21.7793 22.6113 20.3842 23.237 18.7142H16.2855V13.5713H23.3384H28.7727Z" fill="#518EF8"/>
<path d="M24.1373 26.137L24.138 26.1377C21.9102 27.9284 19.0801 28.9999 15.9994 28.9999C11.0486 28.9999 6.74425 26.2327 4.54849 22.1605L8.76141 18.7119C9.85926 21.6419 12.6857 23.7277 15.9994 23.7277C17.4236 23.7277 18.758 23.3427 19.903 22.6705L24.1373 26.137Z" fill="#28B446"/>
<path d="M24.2978 5.99288L20.0863 9.44077C18.9013 8.70007 17.5006 8.27218 15.9999 8.27218C12.6112 8.27218 9.7319 10.4536 8.68905 13.4887L4.45399 10.0215H4.45328C6.61689 5.85003 10.9755 3 15.9999 3C19.1542 3 22.0464 4.1236 24.2978 5.99288Z" fill="#F14336"/>
</svg>
