<svg width="641" height="640" viewBox="0 0 641 640" fill="none" xmlns="http://www.w3.org/2000/svg">
<path d="M618.971 247.594C612.052 162.281 608.592 119.624 592.488 92.0265C546.378 13.005 412.319 -5.78946 327.65 1.41776C214.298 11.0639 84.6249 76.2258 27.5449 202.037C-24.2988 316.309 -0.393424 445.658 77.7237 530.272C220.925 685.383 516.316 657.689 588.475 555.908C617.272 515.289 619.348 450.41 622.399 355.106C623.865 309.23 621.004 272.671 618.971 247.594Z" fill="#F4F7FA"/>
<path d="M564.654 52.1943C557.326 46.1311 546.209 42.829 536.812 42.1621C470.199 37.4418 460.478 176.679 470.688 207.796C480.898 238.913 474.283 249.13 421.82 265.41C369.358 281.691 394.526 313.036 400.92 331.367C407.314 349.698 419.977 365.183 381.733 383.398C343.488 401.612 356.779 412.898 356.779 412.898C356.779 412.898 427.308 485.041 423.412 461.944C419.516 438.847 426.575 403.971 489.809 401.32C517.047 400.178 558.755 387.186 567.99 358.022C570.142 351.23 571.637 340.858 570.002 333.829C567.732 324.078 561.333 316.395 557.78 307.217C549.5 285.831 570.269 270.169 582.222 255.874C588.463 248.411 594.7 240.758 599.477 232.249C609.4 214.583 605.684 195.638 594.88 179.353C589.699 171.545 582.501 163.26 580.24 153.945C577.812 143.94 579.929 130.27 580.505 119.978C580.957 111.905 581.727 103.864 581.272 95.771C580.432 80.7217 576.906 62.3314 564.654 52.1943Z" fill="url(#paint0_linear_66_216)"/>
<g opacity="0.8">
<g opacity="0.8">
<path opacity="0.8" d="M351.233 453.39C350.777 453.555 350.258 453.36 350.028 452.92C349.776 452.438 349.961 451.842 350.443 451.591C350.74 451.435 380.432 435.817 413.554 410.094C444.075 386.392 483.836 349.02 499.934 305.573C513.38 269.288 525.641 209.301 533.577 140.997C540.692 79.7471 541.816 34.4484 538.792 26.04C538.608 25.5284 538.875 24.9644 539.386 24.7794C539.898 24.5944 540.462 24.8616 540.647 25.3731C544.184 35.2111 541.939 86.0979 535.536 141.225C527.584 209.68 515.282 269.832 501.784 306.259C485.519 350.151 445.471 387.81 414.737 411.672C381.478 437.496 351.656 453.18 351.359 453.335C351.316 453.356 351.274 453.374 351.233 453.39Z" fill="white"/>
</g>
<g opacity="0.8">
<path opacity="0.8" d="M533.469 152.87C532.96 153.053 532.441 152.911 532.254 152.402C532.008 151.728 507.175 84.92 475.154 69.8364C474.66 69.6058 474.462 69.0486 474.692 68.5553C474.925 68.062 475.517 67.8679 476.008 68.0986C508.762 83.527 533.079 148.933 534.099 151.717C534.287 152.229 533.985 152.685 533.474 152.868C533.471 152.87 533.469 152.87 533.469 152.87Z" fill="white"/>
</g>
<g opacity="0.8">
<path opacity="0.8" d="M521.358 230.347C520.979 230.484 520.536 230.377 520.264 230.046C519.919 229.626 519.979 229.004 520.399 228.66C520.581 228.509 538.864 213.512 561.422 200.927C591.902 183.923 615.262 179.175 630.85 186.818C631.339 187.058 631.54 187.647 631.3 188.136C631.06 188.625 630.471 188.826 629.982 188.586C594.115 171.002 522.37 229.584 521.65 230.178C521.561 230.254 521.461 230.311 521.358 230.347Z" fill="white"/>
</g>
<g opacity="0.8">
<path opacity="0.8" d="M441.761 388.713C441.66 388.75 441.555 388.768 441.443 388.77C440.9 388.779 440.452 388.345 440.443 387.8C440.438 387.514 439.931 358.85 433.932 328.646C428.431 300.954 417.072 266.268 394.199 258.275C393.685 258.095 393.413 257.533 393.594 257.021C393.772 256.507 394.336 256.236 394.847 256.416C413.921 263.08 427.721 287.262 435.869 328.29C441.9 358.665 442.407 387.482 442.411 387.77C442.421 388.204 442.147 388.574 441.761 388.713Z" fill="white"/>
</g>
<g opacity="0.8">
<path opacity="0.8" d="M482.463 342.402C482.063 342.546 481.602 342.418 481.337 342.059C481.013 341.621 481.106 341.004 481.542 340.682C484.714 338.337 559.536 283.33 588.715 288.583C589.251 288.679 589.605 289.193 589.509 289.727C589.413 290.264 588.902 290.62 588.365 290.522C560.014 285.418 483.484 341.696 482.714 342.265C482.636 342.326 482.55 342.37 482.463 342.402Z" fill="white"/>
</g>
</g>
<path d="M623.117 257.275C618.273 249.09 608.929 242.221 600.312 238.414C539.224 211.433 482.964 339.167 482.042 371.903C481.119 404.639 471.436 412.016 416.562 409.584C361.686 407.152 374.762 445.165 374.577 464.579C374.392 483.992 381.067 502.848 338.916 507.048C296.764 511.248 305.451 526.363 305.451 526.363C305.451 526.363 347.409 618.116 351.558 595.062C355.707 572.009 374.15 541.579 434.551 560.483C460.566 568.624 504.211 570.513 522.771 546.194C527.094 540.531 532.01 531.277 532.848 524.109C534.011 514.166 530.59 504.771 530.35 494.933C529.793 472.005 554.639 464.295 570.723 454.889C579.12 449.979 587.579 444.887 594.955 438.497C610.269 425.231 613.185 406.147 608.529 387.167C606.295 378.067 602.324 367.834 603.35 358.304C604.45 348.069 611.068 335.92 615.092 326.429C618.248 318.986 621.694 311.679 624.005 303.91C628.31 289.456 631.217 270.959 623.117 257.275Z" fill="url(#paint1_linear_66_216)"/>
<g opacity="0.8">
<g opacity="0.8">
<path opacity="0.8" d="M286.53 562.586C286.046 562.586 285.624 562.228 285.555 561.734C285.482 561.195 285.859 560.697 286.398 560.624C286.729 560.579 319.954 555.929 359.826 542.931C396.566 530.955 446.628 509.24 476.478 473.804C501.409 444.208 533.245 391.91 563.823 330.32C591.243 275.092 607.629 232.844 607.629 223.908C607.629 223.365 608.069 222.924 608.613 222.924C609.156 222.924 609.597 223.365 609.597 223.908C609.597 234.363 590.266 281.488 565.586 331.197C534.94 392.922 503.01 445.364 477.983 475.074C447.827 510.873 397.397 532.759 360.402 544.815C320.367 557.861 286.996 562.529 286.663 562.575C286.622 562.584 286.576 562.586 286.53 562.586Z" fill="white"/>
</g>
<g opacity="0.8">
<path opacity="0.8" d="M559.707 341.661C559.166 341.661 558.725 341.25 558.723 340.708C558.718 339.991 557.958 268.67 532.929 243.642C532.543 243.258 532.543 242.639 532.929 242.255C533.312 241.872 533.936 241.874 534.322 242.258C559.924 267.86 560.673 337.731 560.693 340.695C560.698 341.238 560.259 341.661 559.714 341.661C559.709 341.661 559.707 341.661 559.707 341.661Z" fill="white"/>
</g>
<g opacity="0.8">
<path opacity="0.8" d="M522.094 410.269C521.69 410.269 521.311 410.017 521.167 409.615C520.985 409.104 521.249 408.54 521.763 408.355C521.985 408.275 544.264 400.348 569.752 396.14C604.187 390.451 627.775 393.89 639.86 406.357C640.239 406.747 640.228 407.371 639.838 407.75C639.447 408.129 638.824 408.117 638.445 407.727C610.643 379.044 523.307 409.894 522.428 410.209C522.316 410.25 522.204 410.269 522.094 410.269Z" fill="white"/>
</g>
<g opacity="0.8">
<path opacity="0.8" d="M393.605 532.358C393.5 532.358 393.392 532.34 393.285 532.306C392.771 532.13 392.495 531.57 392.673 531.054C392.764 530.782 401.988 503.639 406.562 473.186C410.755 445.266 411.803 408.782 392.984 393.521C392.561 393.178 392.497 392.557 392.84 392.135C393.182 391.712 393.803 391.646 394.226 391.991C409.919 404.715 414.724 432.142 408.506 473.504C403.904 504.127 394.63 531.417 394.536 531.691C394.397 532.1 394.014 532.358 393.605 532.358Z" fill="white"/>
</g>
<g opacity="0.8">
<path opacity="0.8" d="M447.574 502.552C447.149 502.552 446.759 502.275 446.631 501.851C446.473 501.33 446.77 500.78 447.291 500.624C451.068 499.492 540.089 473.047 565.769 487.863C566.24 488.135 566.402 488.738 566.13 489.208C565.858 489.679 565.255 489.841 564.785 489.569C539.831 475.173 448.773 502.236 447.857 502.511C447.763 502.538 447.668 502.552 447.574 502.552Z" fill="white"/>
</g>
</g>
<path d="M418.344 27.1654L417.641 32.2032C415.305 32.3105 413.007 32.6119 410.772 33.1143L408.867 28.4146C408.349 27.1334 406.88 26.5237 405.59 27.0558L397.513 30.3831C396.22 30.9152 395.59 32.3904 396.106 33.6738L398.02 38.433C396.063 39.6798 394.213 41.0912 392.491 42.6532L388.435 39.5063C387.339 38.6568 385.75 38.8669 384.884 39.9767L379.458 46.919C378.588 48.0312 378.773 49.6252 379.869 50.477L383.941 53.6421C382.856 55.6792 381.945 57.8304 381.21 60.0752L376.042 59.3969C374.653 59.2143 373.361 60.1985 373.155 61.5961L371.856 70.3517C371.648 71.7538 372.607 73.0418 373.998 73.2245L379.182 73.905C379.244 76.2686 379.502 78.5934 379.961 80.8565L375.096 82.8844C373.786 83.4302 373.142 84.9397 373.658 86.2528L376.898 94.4877C377.417 95.8076 378.903 96.431 380.219 95.8807L385.085 93.8437C386.309 95.835 387.705 97.7122 389.253 99.4569L386.01 103.668C385.133 104.808 385.32 106.438 386.43 107.31L393.382 112.764C394.494 113.636 396.108 113.417 396.983 112.273L400.187 108.089C402.233 109.178 404.398 110.085 406.657 110.809L405.928 116.029C405.729 117.459 406.705 118.768 408.107 118.95L416.883 120.101C418.287 120.286 419.582 119.274 419.778 117.845L420.486 112.663C422.873 112.561 425.218 112.252 427.5 111.738L429.425 116.525C429.959 117.854 431.455 118.482 432.766 117.927L440.95 114.458C442.259 113.903 442.882 112.38 442.346 111.056L440.421 106.303C442.419 105.013 444.3 103.549 446.045 101.93L450.046 105.04C451.165 105.911 452.768 105.691 453.627 104.552L458.987 97.445C459.843 96.31 459.631 94.6909 458.514 93.8254L454.549 90.7516C455.63 88.6575 456.527 86.4446 457.24 84.1404L462.195 84.7912C463.586 84.9739 464.86 83.9805 465.041 82.5738L466.166 73.7954C466.347 72.3955 465.367 71.1121 463.979 70.9294L459.037 70.2809C458.934 67.8876 458.633 65.54 458.126 63.2586L462.709 61.3403C463.997 60.8014 464.607 59.3125 464.072 58.0153L460.724 49.9221C460.19 48.6295 458.715 48.0175 457.427 48.5541L452.816 50.477C451.56 48.5062 450.14 46.6473 448.562 44.9277L451.608 40.9518C452.455 39.8443 452.248 38.2617 451.147 37.4145L444.262 32.1232C443.161 31.2783 441.583 31.4861 440.733 32.5891L437.669 36.5695C435.636 35.5145 433.49 34.6375 431.249 33.9433L431.932 28.9444C432.119 27.5696 431.158 26.3067 429.781 26.1263L421.178 24.9982C419.808 24.8224 418.536 25.7884 418.344 27.1654ZM388.015 67.9721C390.502 50.6711 406.38 38.5426 423.496 40.7874C440.612 43.0323 452.633 58.8215 450.334 76.1453C448.021 93.5765 432.108 105.942 414.805 103.675C397.501 101.405 385.515 85.3781 388.015 67.9721Z" fill="#D8DEE8"/>
<path d="M286.436 24.4343L285.349 32.2238C281.738 32.3883 278.185 32.8541 274.727 33.6306L271.784 26.364C270.98 24.3818 268.712 23.4409 266.719 24.263L254.229 29.4081C252.231 30.2325 251.256 32.5093 252.055 34.4984L255.015 41.8563C251.989 43.7837 249.128 45.9646 246.467 48.383L240.187 43.5165C238.495 42.2034 236.035 42.53 234.697 44.2427L226.307 54.9759C224.962 56.6955 225.247 59.1596 226.942 60.4773L233.238 65.3734C231.562 68.5226 230.15 71.8499 229.013 75.3188L221.023 74.2706C218.878 73.9897 216.88 75.5106 216.558 77.6709L214.551 91.2107C214.229 93.3802 215.713 95.3693 217.864 95.6502L225.878 96.7007C225.974 100.355 226.371 103.951 227.083 107.45L219.563 110.585C217.535 111.43 216.54 113.762 217.339 115.794L222.349 128.526C223.151 130.565 225.451 131.531 227.483 130.679L235.008 127.53C236.899 130.608 239.057 133.511 241.452 136.208L236.44 142.719C235.083 144.482 235.373 147.003 237.09 148.35L247.84 156.781C249.559 158.131 252.055 157.791 253.409 156.023L258.363 149.556C261.526 151.241 264.876 152.643 268.367 153.762L267.239 161.835C266.931 164.046 268.438 166.069 270.61 166.352L284.179 168.131C286.349 168.417 288.354 166.852 288.655 164.642L289.752 156.631C293.442 156.473 297.068 155.996 300.594 155.201L303.57 162.602C304.397 164.658 306.71 165.628 308.736 164.77L321.392 159.408C323.413 158.551 324.379 156.195 323.547 154.144L320.57 146.795C323.659 144.801 326.569 142.536 329.268 140.033L335.452 144.842C337.181 146.188 339.659 145.847 340.988 144.089L349.275 133.102C350.597 131.348 350.271 128.843 348.544 127.505L342.415 122.755C344.087 119.514 345.473 116.094 346.574 112.533L354.238 113.538C356.389 113.821 358.359 112.284 358.638 110.11L360.378 96.5362C360.657 94.369 359.141 92.3868 356.996 92.1059L349.355 91.1034C349.197 87.4039 348.732 83.7729 347.946 80.2469L355.035 77.2804C357.028 76.4469 357.971 74.145 357.14 72.1399L351.963 59.6255C351.136 57.6273 348.855 56.6818 346.866 57.5108L339.739 60.4818C337.797 57.4331 335.598 54.5603 333.162 51.9044L337.871 45.7568C339.181 44.0463 338.862 41.5983 337.156 40.2874L326.509 32.1074C324.808 30.8011 322.367 31.1231 321.054 32.829L316.313 38.9835C313.168 37.3529 309.85 35.9964 306.388 34.9208L307.445 27.1907C307.735 25.0646 306.246 23.1143 304.12 22.8357L290.818 21.091C288.696 20.8124 286.733 22.3082 286.436 24.4343ZM239.541 87.5295C243.384 60.7787 267.936 42.0253 294.399 45.4965C320.862 48.9676 339.449 73.3799 335.895 100.167C332.319 127.117 307.717 146.24 280.964 142.73C254.209 139.222 235.672 114.44 239.541 87.5295Z" fill="#D8DEE8"/>
<path d="M273.708 99.8632L215.53 583.437C214.658 590.688 219.654 597.187 226.656 597.881L468.98 624.486C483.823 625.408 491.951 617.824 492.869 610.115L553.95 95.9946C554.861 88.3284 547.579 81.3838 532.671 81.3838L288.143 86.5334C281.062 86.6545 274.576 92.6514 273.708 99.8632Z" fill="url(#paint2_linear_66_216)"/>
<path d="M262.802 99.0318L204.304 585.024C203.427 592.311 208.442 598.845 215.466 599.544L466.687 624.557C474.563 625.34 481.782 619.642 482.702 611.894L544.126 95.1177C545.041 87.4103 539.257 81.217 531.294 81.3518L277.287 85.6382C270.185 85.7547 263.674 91.7835 262.802 99.0318Z" fill="url(#paint3_linear_66_216)"/>
<path d="M267.57 125.838L213.349 576.449C212.529 583.257 217.227 589.35 223.801 589.989L460.066 612.956C467.388 613.668 474.097 608.35 474.956 601.136L531.721 123.755C532.575 116.58 527.203 110.772 519.807 110.852L281.116 113.394C274.473 113.463 268.385 119.064 267.57 125.838Z" fill="#D8DEE8"/>
<path d="M394.267 98.6962C393.957 101.284 395.813 103.355 398.417 103.321C401.022 103.289 403.388 101.16 403.699 98.5683C404.01 95.9764 402.146 93.9051 399.54 93.9439C396.935 93.9827 394.576 96.1111 394.267 98.6962Z" fill="url(#paint4_linear_66_216)"/>
<path d="M308.417 428.318C356.785 338.892 429.042 312.123 450.796 219.959C462.555 170.141 454.544 122.458 441.05 82.873L531.298 81.3498C539.261 81.2151 545.045 87.4107 544.13 95.1157L482.706 611.892C481.786 619.642 474.567 625.34 466.691 624.555L269.207 604.892C267.743 524.763 286.855 468.179 308.417 428.318Z" fill="white"/>
<path d="M24.2913 150.317C24.2913 102.798 65.742 64.2845 115.485 64.2891C163.757 64.2936 201.853 100.782 201.853 145.786C201.853 190.79 163.757 229.222 115.485 231.69C65.7397 234.234 24.2913 197.835 24.2913 150.317Z" fill="url(#paint5_linear_66_216)"/>
<path d="M29.6533 146.528C29.6533 99.0093 69.9051 60.4954 118.207 60.5C165.081 60.5046 202.076 96.9929 202.076 141.997C202.076 187.001 165.081 225.433 118.207 227.901C69.9028 230.445 29.6533 194.044 29.6533 146.528Z" fill="url(#paint6_linear_66_216)"/>
<g opacity="0.5">
<path opacity="0.5" d="M43.4332 146.164C43.4332 106.241 77.2496 73.8818 117.833 73.8887C157.214 73.8932 188.297 104.549 188.297 142.36C188.297 180.17 157.217 212.459 117.833 214.532C77.2496 216.67 43.4332 186.087 43.4332 146.164Z" fill="white"/>
</g>
<path opacity="0.5" d="M115.04 80.0226C154.421 80.0271 185.504 110.683 185.504 148.494C185.504 157.484 183.73 166.155 180.521 174.189C185.49 164.516 188.299 153.689 188.299 142.36C188.299 104.549 157.219 73.8932 117.835 73.8887C86.5349 73.8864 59.2772 93.1422 48.4366 120.263C60.7113 96.4193 86.1558 80.0203 115.04 80.0226Z" fill="white"/>
<path d="M84.1838 136.393V171.237C84.1838 181.311 92.6585 189.258 103.081 188.986L128.925 188.312C139.222 188.043 147.544 179.746 147.544 169.778V135.302L84.1838 136.393ZM107.984 172.416L112.787 157.862C110.729 156.8 109.336 154.708 109.336 152.272C109.336 148.695 112.337 145.738 116.032 145.67C119.722 145.599 122.711 148.435 122.711 152.004C122.711 154.437 121.323 156.581 119.272 157.727L124.057 172.041L107.984 172.416Z" fill="white"/>
<path d="M140.197 132.28C137.455 132.326 135.23 130.204 135.23 127.539C135.23 117.297 126.632 109.076 116.029 109.213C105.39 109.35 96.7051 117.847 96.7051 128.154C96.7051 130.835 94.4512 133.045 91.6674 133.093C88.8813 133.139 86.6205 131.001 86.6205 128.316C86.6205 112.629 99.8497 99.7175 116.032 99.5371C132.127 99.3567 145.155 111.848 145.155 127.384C145.155 130.042 142.938 132.235 140.197 132.28Z" fill="white"/>
<path d="M200.056 331.02C200.056 331.02 198.298 324.429 199.545 322.744C200.789 321.059 208.405 314.322 207.675 316.519C206.942 318.716 205.843 320.18 205.843 320.18C205.843 320.18 209.945 322.084 207.307 324.939C204.672 327.796 203.79 328.453 203.644 331.018C203.5 333.582 201.815 334.462 200.056 331.02Z" fill="url(#paint7_linear_66_216)"/>
<path d="M126.899 615.512C126.899 615.512 125.968 621.212 126.086 623.24C126.205 625.267 148.717 626.304 148.944 624.786C149.17 623.267 145.223 620.849 142.444 619.997C139.665 619.143 131.531 616.868 131.531 616.868L126.899 615.512Z" fill="url(#paint8_linear_66_216)"/>
<path d="M132.363 609.83L131.646 616.919C131.646 616.919 129.031 618.647 126.727 617.314L125.574 609.6L132.363 609.83Z" fill="url(#paint9_linear_66_216)"/>
<path d="M86.7324 624.752C86.7324 624.752 85.8006 630.452 85.9194 632.48C86.0381 634.508 108.55 635.545 108.777 634.026C109.005 632.507 105.056 630.089 102.277 629.237C99.498 628.385 91.3636 626.108 91.3636 626.108L86.7324 624.752Z" fill="url(#paint10_linear_66_216)"/>
<path d="M92.198 619.07L91.4809 626.158C91.4809 626.158 88.8662 627.887 86.562 626.553L85.4087 618.839L92.198 619.07Z" fill="url(#paint11_linear_66_216)"/>
<path d="M128.279 424.794C130.88 430.07 133.484 435.345 136.085 440.62C138.177 470.726 139.218 503.464 138.549 538.475C138.051 564.522 136.66 589.197 134.66 612.358C131.131 612.196 127.603 612.034 124.075 611.872C118.973 601.746 112.951 586.407 112.396 567.471C111.819 547.719 117.806 545.095 117.427 526.184C116.934 501.671 106.655 495.131 101.179 465.647C99.0848 454.37 97.6758 439.643 99.3497 421.775C108.994 422.782 118.635 423.79 128.279 424.794Z" fill="url(#paint12_linear_66_216)"/>
<path opacity="0.3" d="M99.3516 421.775C104.558 422.319 109.765 422.862 114.974 423.406C124.349 439.718 126.966 456.695 125.319 464.206C122.992 474.832 116.835 478.234 117.176 488.901C117.511 499.456 123.73 502.194 127.674 514.634C130.405 523.248 129.683 531.167 128.13 546.655C125.002 577.852 117.468 587.393 123.778 597.622C125.57 600.529 128.802 603.989 135.132 606.631C134.977 608.544 134.824 610.463 134.662 612.356C131.133 612.196 127.605 612.032 124.077 611.872C118.975 601.746 112.953 586.407 112.398 567.471C111.82 547.719 117.808 545.095 117.429 526.184C116.936 501.671 106.657 495.133 101.181 465.649C99.0867 454.372 97.6754 439.645 99.3516 421.775Z" fill="url(#paint13_linear_66_216)"/>
<path d="M114.277 434.292C109.393 460.929 105.079 489.435 101.713 519.669C97.6477 556.173 95.4782 590.588 94.6264 622.539C90.7533 622.648 86.8825 622.758 83.0094 622.867C67.75 592.68 66.8183 572.214 69.0174 558.888C69.8647 553.755 72.1689 543.686 72.6941 528.637C73.0595 518.148 72.3904 510.164 71.5546 500.568C69.7231 479.529 67.4988 474.936 67.1791 458.844C66.8777 443.739 66.816 436.098 71.1275 431.638C82.4865 419.884 112.037 433.251 114.277 434.292Z" fill="url(#paint14_linear_66_216)"/>
<path d="M198.031 330.004C200.607 329.824 203.181 329.645 205.757 329.465C211.832 354.017 207.474 377.831 193.763 386.589C172.34 400.272 132.525 374.492 123.897 346.419C120.111 334.096 120.972 316.316 128.542 312.861C130.643 311.901 133.904 311.753 140.967 315.717C162.061 327.561 162.616 349.945 173.34 351.84C178.104 352.685 185.805 349.646 198.031 330.004Z" fill="url(#paint15_linear_66_216)"/>
<path d="M139.049 446.021C142.76 439.864 138.099 433.927 137.039 422.264C135.838 409.044 140.93 406.843 145.966 384.936C149.316 370.366 152.529 356.378 148.693 340.005C146.854 332.158 143.735 318.849 132.718 312.42C127.034 309.102 119.272 309.436 103.983 310.235C85.0744 311.224 75.6224 311.717 68.5704 315.43C67.5382 315.974 46.0901 327.641 44.6126 346.659C43.1099 366.016 64.1881 368.617 66.9993 394.429C68.2621 406.016 66.0127 423.838 64.5535 435.395C63.1536 446.494 62.1876 449.335 64.3799 452.696C69.6598 460.796 85.8212 458.488 118.144 453.872C130.823 452.059 136.279 450.616 139.049 446.021Z" fill="url(#paint16_linear_66_216)"/>
<path d="M89.8668 390.274C88.4989 395.305 83.5844 399.062 80.1635 411.3C79.4259 413.942 74.162 432.757 80.9879 437.388C84.9295 440.062 88.4692 434.995 98.0377 434.333C114.617 433.186 122.516 447.121 133.348 443.314C135.227 442.652 137.707 441.245 140.185 438.012C140.678 440.926 140.594 443.458 139.05 446.023C136.282 450.618 130.824 452.061 118.145 453.872C85.8224 458.487 69.6609 460.796 64.3811 452.696C62.1911 449.336 63.1548 446.493 64.5547 435.395C66.0139 423.835 68.2634 406.013 67.0005 394.428C64.1893 368.616 43.1088 366.015 44.6138 346.659C45.0157 341.484 46.918 336.878 49.4643 332.865C76.2036 343.685 94.1623 374.464 89.8668 390.274Z" fill="url(#paint17_linear_66_216)"/>
<path d="M56.0952 428.347L61.4458 431.764C62.4072 430.654 64.6315 428.416 68.1027 427.653C72.0146 426.792 76.5066 428.027 76.6093 429.274C76.6938 430.275 73.958 431.284 73.5355 431.439C70.1214 432.7 67.5889 431.652 66.2095 433.024C65.7208 433.508 65.1134 434.413 63.7135 435.248C63.3458 435.468 62.9622 435.662 62.7589 435.742C60.4798 436.628 56.5725 432.661 56.2368 432.314L56.0952 428.347Z" fill="url(#paint18_linear_66_216)"/>
<path d="M71.9001 358.18C75.7709 348.91 78.4519 334.717 72.3385 313.642C32.0594 329.513 11.5178 367.139 19.5381 396.963C26.1492 421.551 50.2053 433.527 55.5719 436.048C56.8211 433.205 58.0702 430.364 59.3171 427.523C53.0987 420.599 46.0902 410.359 47.0813 398.674C48.456 382.473 64.0648 376.945 71.9001 358.18Z" fill="url(#paint19_linear_66_216)"/>
<path d="M102.991 291.166C102.991 291.166 102.674 298.211 100.486 303.489C98.5086 308.257 88.1134 311.255 86.0056 312.32C83.8978 313.384 89.9541 316.496 96.0354 317.106C102.117 317.718 119.482 316.337 122.613 314.032C125.744 311.728 120.096 311.902 115.757 310.308C111.416 308.714 108.906 300.225 109.673 296.373C110.441 292.518 102.991 291.166 102.991 291.166Z" fill="url(#paint20_linear_66_216)"/>
<path d="M112.61 288.61C115.766 285.509 116.207 285.148 116.549 284.077C117.929 279.777 114.592 273.885 110.217 272.435C109.988 272.36 107.054 271.421 105.935 272.693C104.983 273.773 106.383 275.267 105.718 277.352C105.095 279.302 103.405 279.448 100.269 282.006C97.6864 284.112 96.0833 285.422 95.7133 287.265C94.9506 291.063 99.5476 296.567 103.617 296.418C105.081 296.363 105.481 295.617 112.61 288.61Z" fill="url(#paint21_linear_66_216)"/>
<path d="M104.017 297.005C104.017 297.005 107.372 300.803 112.481 299.547C117.055 298.424 115.888 287.923 112.54 286.247C111.423 285.688 109.393 285.733 107.868 286.469C106.966 286.903 106.714 287.355 105.228 288.035C103.858 288.663 103.421 288.576 103.054 289.02C102.592 289.572 102.394 290.764 103.839 293.637C102.798 292.899 101.677 292.744 100.989 293.233C100.88 293.311 100.601 293.585 100.48 293.943C100.044 295.243 101.396 296.565 104.017 297.005Z" fill="url(#paint22_linear_66_216)"/>
<path d="M486.589 154.835L487.77 161.209L463.465 161.266L252.546 161.766C247.12 161.78 242.131 166.265 241.386 171.784L191.036 508.288C190.287 513.858 198.956 522.36 204.35 522.776L297.923 529.967V529.853L437.893 540.591C437.895 540.591 437.897 540.591 437.9 540.591L438.237 540.732C444.214 541.194 449.697 536.857 450.473 530.974C450.473 530.972 450.473 530.999 450.476 530.997L497.629 171.72C498.396 165.892 492.6 154.819 486.589 154.835Z" fill="url(#paint23_linear_66_216)"/>
<path d="M445.705 523.973C444.933 529.858 439.452 534.257 433.476 533.798L199.346 515.821C193.954 515.407 190.202 510.557 190.951 504.987L236.723 164.905C237.465 159.385 242.455 154.9 247.876 154.884L483.328 154.235C489.336 154.219 493.598 158.931 492.835 164.758L445.705 523.973Z" fill="url(#paint24_linear_66_216)"/>
<path d="M448.815 336.948C448.432 339.862 445.71 342.036 442.736 341.926L236.675 334.406C233.955 334.308 232.041 332.068 232.416 329.284L236.467 299.256C236.842 296.475 239.324 294.593 242.046 294.668L448.288 300.396C451.266 300.478 453.374 302.581 452.992 305.493L448.815 336.948Z" fill="white"/>
<path d="M440.836 397.96C440.452 400.881 437.728 403.372 434.755 403.224L228.849 393.052C226.131 392.918 224.24 390.317 224.615 387.53L228.698 356.923C229.072 354.139 231.578 351.752 234.297 351.862L440.329 360.172C443.302 360.293 445.406 362.983 445.022 365.9L440.836 397.96Z" fill="white"/>
<path opacity="0.1" d="M453.009 305.372C452.52 305.214 451.995 305.128 451.435 305.112L245.189 299.387C242.469 299.309 239.985 301.195 239.615 303.97L235.556 333.998C235.547 334.075 235.541 334.148 235.534 334.226C233.442 333.637 232.097 331.655 232.412 329.28L236.47 299.252C236.84 296.477 239.325 294.589 242.044 294.668L448.291 300.394C451.216 300.48 453.315 302.517 453.009 305.372Z" fill="url(#paint25_linear_66_216)"/>
<path opacity="0.1" d="M445.066 365.224C444.571 365.027 444.037 364.909 443.47 364.886L237.443 356.573C234.723 356.464 232.213 358.855 231.844 361.638L227.754 392.249C227.731 392.445 227.715 392.634 227.715 392.831C225.623 392.155 224.294 389.906 224.609 387.53L228.699 356.92C229.069 354.137 231.576 351.746 234.298 351.855L440.326 360.168C443.077 360.286 445.073 362.582 445.066 365.224Z" fill="url(#paint26_linear_66_216)"/>
<path d="M386.075 447.413C386.682 442.807 383.425 438.564 378.796 438.297L272.207 432.176C267.792 431.923 263.716 435.641 263.115 440.126L258.717 473.28C258.117 477.772 261.179 482.07 265.591 482.371L372.126 489.661C376.753 489.978 381.014 486.071 381.624 481.458L386.075 447.413Z" fill="url(#paint27_linear_66_216)"/>
<path d="M394.125 224.042C392.72 234.64 387.276 244.206 379.534 251.242C371.192 258.831 360.203 263.449 348.776 263.227C337.405 263.008 327.834 258.041 321.689 250.283C316.021 243.133 313.244 233.606 314.635 223.185C317.528 201.507 337.446 183.982 359.303 184.034C381.368 184.082 397.043 201.993 394.125 224.042Z" fill="url(#paint28_linear_66_216)"/>
<path d="M372.87 211.996C371.61 221.491 362.845 229.1 353.329 228.986C343.852 228.872 337.216 221.137 338.469 211.71C339.725 202.286 348.401 194.683 357.883 194.727C367.405 194.77 374.131 202.5 372.87 211.996Z" fill="white"/>
<path d="M379.536 251.243C371.194 258.832 360.205 263.449 348.777 263.228C337.407 263.008 327.836 258.041 321.691 250.284C328.724 240.485 340.325 233.967 352.646 234.127C365.032 234.287 375.016 241.151 379.536 251.243Z" fill="white"/>
<path opacity="0.4" d="M492.833 164.758L445.705 523.972C444.933 529.855 439.103 534.228 433.129 533.769L292.508 522.972C285.828 516.133 280.327 507.925 276.401 498.076C274.474 493.246 273.063 488.035 272.124 482.554C269.514 467.386 270.526 450.144 274.332 433.22C277.26 420.192 281.85 407.33 287.726 395.724C292.426 386.446 297.952 377.962 304.125 370.833C308.569 365.701 313.376 360.716 318.446 355.827C324.559 349.926 331.056 344.166 337.759 338.459C353.377 325.153 370.1 312.143 385.583 298.404C421.309 266.711 450.293 231.299 443.319 180.771C443.095 179.179 440.918 166.991 438.137 154.358L482.979 154.234C488.985 154.218 493.598 158.932 492.833 164.758Z" fill="white"/>
<defs>
<linearGradient id="paint0_linear_66_216" x1="428.188" y1="461.211" x2="594.984" y2="10.7307" gradientUnits="userSpaceOnUse">
<stop offset="0.00359712" stop-color="#E38DDD"/>
<stop offset="1" stop-color="#9571F6"/>
</linearGradient>
<linearGradient id="paint1_linear_66_216" x1="304.711" y1="416.738" x2="628.243" y2="416.738" gradientUnits="userSpaceOnUse">
<stop stop-color="#FF9085"/>
<stop offset="1" stop-color="#FB6FBB"/>
</linearGradient>
<linearGradient id="paint2_linear_66_216" x1="387.738" y1="340.467" x2="483.236" y2="350.885" gradientUnits="userSpaceOnUse">
<stop stop-color="#444B8C"/>
<stop offset="0.9964" stop-color="#26264F"/>
</linearGradient>
<linearGradient id="paint3_linear_66_216" x1="303.595" y1="99.7449" x2="539.734" y2="903.661" gradientUnits="userSpaceOnUse">
<stop stop-color="#444B8C"/>
<stop offset="0.9964" stop-color="#26264F"/>
</linearGradient>
<linearGradient id="paint4_linear_66_216" x1="392.082" y1="79.9438" x2="669.609" y2="831.581" gradientUnits="userSpaceOnUse">
<stop stop-color="#FFC444"/>
<stop offset="0.9964" stop-color="#F36F56"/>
</linearGradient>
<linearGradient id="paint5_linear_66_216" x1="-2032.59" y1="2171.28" x2="-1842.76" y2="1992.27" gradientUnits="userSpaceOnUse">
<stop stop-color="#311944"/>
<stop offset="1" stop-color="#893976"/>
</linearGradient>
<linearGradient id="paint6_linear_66_216" x1="58.1701" y1="196.56" x2="210.287" y2="58.518" gradientUnits="userSpaceOnUse">
<stop stop-color="#FF9085"/>
<stop offset="1" stop-color="#FB6FBB"/>
</linearGradient>
<linearGradient id="paint7_linear_66_216" x1="212.292" y1="316.593" x2="182.148" y2="347.275" gradientUnits="userSpaceOnUse">
<stop stop-color="#FFC444"/>
<stop offset="0.9964" stop-color="#F36F56"/>
</linearGradient>
<linearGradient id="paint8_linear_66_216" x1="137.573" y1="608.041" x2="137.827" y2="539.973" gradientUnits="userSpaceOnUse">
<stop stop-color="#AA80F9"/>
<stop offset="0.9964" stop-color="#6165D7"/>
</linearGradient>
<linearGradient id="paint9_linear_66_216" x1="130.831" y1="629.915" x2="127.589" y2="594.742" gradientUnits="userSpaceOnUse">
<stop stop-color="#FFC444"/>
<stop offset="0.9964" stop-color="#F36F56"/>
</linearGradient>
<linearGradient id="paint10_linear_66_216" x1="97.4424" y1="607.892" x2="97.6964" y2="539.823" gradientUnits="userSpaceOnUse">
<stop stop-color="#AA80F9"/>
<stop offset="0.9964" stop-color="#6165D7"/>
</linearGradient>
<linearGradient id="paint11_linear_66_216" x1="90.1588" y1="633.662" x2="86.9177" y2="598.488" gradientUnits="userSpaceOnUse">
<stop stop-color="#FFC444"/>
<stop offset="0.9964" stop-color="#F36F56"/>
</linearGradient>
<linearGradient id="paint12_linear_66_216" x1="129.6" y1="452.687" x2="104.65" y2="580.242" gradientUnits="userSpaceOnUse">
<stop stop-color="#311944"/>
<stop offset="1" stop-color="#893976"/>
</linearGradient>
<linearGradient id="paint13_linear_66_216" x1="142.05" y1="515.06" x2="104.566" y2="518.065" gradientUnits="userSpaceOnUse">
<stop stop-color="#311944"/>
<stop offset="1" stop-color="#893976"/>
</linearGradient>
<linearGradient id="paint14_linear_66_216" x1="121.317" y1="522.111" x2="64.4127" y2="526.672" gradientUnits="userSpaceOnUse">
<stop stop-color="#311944"/>
<stop offset="1" stop-color="#893976"/>
</linearGradient>
<linearGradient id="paint15_linear_66_216" x1="166.265" y1="334.292" x2="124.165" y2="604.671" gradientUnits="userSpaceOnUse">
<stop stop-color="#AA80F9"/>
<stop offset="0.9964" stop-color="#6165D7"/>
</linearGradient>
<linearGradient id="paint16_linear_66_216" x1="76.7244" y1="631.074" x2="56.3619" y2="903.952" gradientUnits="userSpaceOnUse">
<stop stop-color="#AA80F9"/>
<stop offset="0.9964" stop-color="#6165D7"/>
</linearGradient>
<linearGradient id="paint17_linear_66_216" x1="7.49448" y1="538.031" x2="119.878" y2="345.527" gradientUnits="userSpaceOnUse">
<stop stop-color="#AA80F9"/>
<stop offset="0.9964" stop-color="#6165D7"/>
</linearGradient>
<linearGradient id="paint18_linear_66_216" x1="47.3342" y1="404.93" x2="71.0367" y2="436.949" gradientUnits="userSpaceOnUse">
<stop stop-color="#FFC444"/>
<stop offset="0.9964" stop-color="#F36F56"/>
</linearGradient>
<linearGradient id="paint19_linear_66_216" x1="26.9744" y1="627.361" x2="6.6119" y2="900.239" gradientUnits="userSpaceOnUse">
<stop stop-color="#AA80F9"/>
<stop offset="0.9964" stop-color="#6165D7"/>
</linearGradient>
<linearGradient id="paint20_linear_66_216" x1="114.644" y1="325.143" x2="91.8257" y2="296.753" gradientUnits="userSpaceOnUse">
<stop stop-color="#FFC444"/>
<stop offset="0.9964" stop-color="#F36F56"/>
</linearGradient>
<linearGradient id="paint21_linear_66_216" x1="97.2931" y1="314.715" x2="109.387" y2="274.93" gradientUnits="userSpaceOnUse">
<stop stop-color="#444B8C"/>
<stop offset="0.9964" stop-color="#3E4177"/>
</linearGradient>
<linearGradient id="paint22_linear_66_216" x1="128.137" y1="300.832" x2="94.119" y2="285.691" gradientUnits="userSpaceOnUse">
<stop stop-color="#FFC444"/>
<stop offset="0.9964" stop-color="#F36F56"/>
</linearGradient>
<linearGradient id="paint23_linear_66_216" x1="190.991" y1="347.802" x2="497.698" y2="347.802" gradientUnits="userSpaceOnUse">
<stop stop-color="#311944"/>
<stop offset="1" stop-color="#893976"/>
</linearGradient>
<linearGradient id="paint24_linear_66_216" x1="377.459" y1="951.039" x2="340.888" y2="317.573" gradientUnits="userSpaceOnUse">
<stop offset="0.003597" stop-color="#F36F56"/>
<stop offset="1" stop-color="#FFC444"/>
</linearGradient>
<linearGradient id="paint25_linear_66_216" x1="232.365" y1="314.448" x2="453.037" y2="314.448" gradientUnits="userSpaceOnUse">
<stop offset="0.003597" stop-color="#F36F56"/>
<stop offset="1" stop-color="#FFC444"/>
</linearGradient>
<linearGradient id="paint26_linear_66_216" x1="224.565" y1="372.342" x2="445.066" y2="372.342" gradientUnits="userSpaceOnUse">
<stop offset="0.003597" stop-color="#F36F56"/>
<stop offset="1" stop-color="#FFC444"/>
</linearGradient>
<linearGradient id="paint27_linear_66_216" x1="332.946" y1="393.718" x2="283.654" y2="706.302" gradientUnits="userSpaceOnUse">
<stop offset="0.003597" stop-color="#F36F56"/>
<stop offset="1" stop-color="#FFC444"/>
</linearGradient>
<linearGradient id="paint28_linear_66_216" x1="349.161" y1="68.2624" x2="359.688" y2="381.736" gradientUnits="userSpaceOnUse">
<stop offset="0.003597" stop-color="#F36F56"/>
<stop offset="1" stop-color="#FFC444"/>
</linearGradient>
</defs>
</svg>
